<svg width="25" height="25" viewBox="0 0 25 25" fill="none" xmlns="http://www.w3.org/2000/svg">
<g clip-path="url(#clip0_1_287)">
<path d="M12.1748 15.1439C13.8316 15.134 15.1667 13.7828 15.1567 12.1259C15.1467 10.4691 13.7955 9.13408 12.1387 9.14405C10.4819 9.15403 9.14682 10.5052 9.15679 12.1621C9.16676 13.8189 10.518 15.1539 12.1748 15.1439Z" fill="#7F4E1D"/>
<path d="M23.1597 11.2621C21.9079 9.35151 20.2889 7.73185 18.4782 6.57788C16.475 5.29992 14.2678 4.63116 12.0956 4.64423C10.1025 4.65623 8.14616 5.23754 6.28077 6.37192C4.37848 7.52854 2.65889 9.21189 1.16954 11.3748C1.00141 11.6192 0.909739 11.9082 0.906183 12.2048C0.902627 12.5015 0.987343 12.7925 1.14957 13.0409C2.39917 14.9707 4.00225 16.5928 5.78476 17.731C7.79173 19.0141 9.94721 19.6574 12.1859 19.644C14.3754 19.6308 16.5791 18.9411 18.5584 17.6499C20.3542 16.478 21.9503 14.8329 23.1742 12.8914C23.3279 12.6469 23.4083 12.3635 23.4057 12.0747C23.4031 11.7859 23.3178 11.5039 23.1597 11.2621ZM12.1838 16.6439C11.2938 16.6493 10.4222 16.3906 9.67921 15.9006C8.93623 15.4106 8.35523 14.7113 8.00969 13.8911C7.66416 13.0709 7.5696 12.1666 7.73797 11.2927C7.90635 10.4187 8.3301 9.61434 8.95564 8.98123C9.58117 8.34812 10.3804 7.91471 11.2523 7.73583C12.1241 7.55694 13.0294 7.64061 13.8537 7.97625C14.678 8.31189 15.3843 8.88443 15.8832 9.62146C16.3821 10.3585 16.6513 11.2269 16.6566 12.1169C16.6624 13.31 16.1948 14.4566 15.3563 15.3053C14.5177 16.154 13.3768 16.6354 12.1838 16.6439Z" fill="#7F4E1D"/>
</g>
<defs>
<clipPath id="clip0_1_287">
<rect width="24" height="24" fill="white" transform="translate(0.0847168 0.216431) rotate(-0.344861)"/>
</clipPath>
</defs>
</svg>
